<?xml version="1.0" standalone="no"?>
<!DOCTYPE svg PUBLIC "-//W3C//DTD SVG 20010904//EN"
 "http://www.w3.org/TR/2001/REC-SVG-20010904/DTD/svg10.dtd">
<svg version="1.0" xmlns="http://www.w3.org/2000/svg"
 width="600.000000pt" height="600.000000pt" viewBox="0 0 600.000000 600.000000"
 preserveAspectRatio="xMidYMid meet">
<metadata>
Created by potrace 1.11, written by Peter Selinger 2001-2013
</metadata>
<g transform="translate(0.000000,600.000000) scale(0.100000,-0.100000)"
fill="#000000" stroke="none">
<path d="M2829 5496 c-2 -2 -38 -6 -79 -10 -231 -19 -530 -98 -768 -202 -59
-26 -112 -51 -118 -56 -6 -4 -37 -22 -70 -39 -291 -154 -606 -432 -816 -719
-136 -187 -259 -422 -338 -645 -93 -266 -138 -535 -137 -830 0 -564 182 -1089
535 -1545 83 -106 291 -316 397 -400 201 -159 500 -327 721 -403 113 -40 268
-83 329 -93 22 -3 42 -7 45 -9 3 -2 26 -6 50 -9 73 -10 124 -18 145 -23 51
-12 438 -10 540 2 168 20 377 61 444 87 14 5 33 11 41 13 8 2 49 15 90 30 248
89 521 243 730 410 153 122 356 338 473 502 220 310 392 749 433 1103 3 30 8
64 11 75 9 38 11 420 2 495 -20 181 -36 268 -73 410 -131 500 -431 966 -836
1296 -91 74 -92 75 -220 160 -196 131 -541 283 -747 329 -92 21 -238 47 -278
51 -27 3 -57 8 -65 11 -18 6 -434 15 -441 9z m358 -350 c152 -12 443 -75 548
-120 16 -7 66 -28 110 -46 258 -107 511 -283 712 -495 95 -99 222 -260 270
-343 86 -145 183 -345 183 -375 0 -7 4 -17 9 -22 24 -26 104 -341 116 -458 2
-25 7 -67 11 -93 12 -93 6 -393 -10 -481 -2 -10 -7 -38 -11 -63 -4 -25 -9 -56
-12 -70 -2 -14 -15 -70 -29 -125 -144 -566 -549 -1079 -1069 -1355 -184 -97
-438 -187 -605 -215 -19 -3 -60 -10 -90 -15 -124 -20 -447 -31 -515 -16 -11 2
-49 7 -85 11 -36 3 -72 8 -80 10 -8 2 -31 7 -50 10 -19 3 -85 19 -146 35 -505
134 -956 460 -1245 900 -103 156 -213 392 -259 550 -7 25 -16 56 -21 70 -11
34 -46 212 -54 280 -3 30 -9 69 -11 85 -7 40 -7 339 0 393 3 23 8 61 11 85 3
23 7 53 10 67 2 14 7 41 10 60 17 101 74 292 125 415 216 519 632 937 1153
1159 216 92 468 152 687 163 63 3 116 6 117 7 4 3 138 -2 220 -8z"/>
<path d="M1980 3670 c-5 -3 -11 -64 -12 -135 l-3 -129 -87 0 -88 1 0 -92 0
-92 87 -1 c47 -1 88 -3 89 -5 2 -2 4 -145 4 -318 1 -391 12 -450 95 -516 57
-46 125 -62 247 -59 59 1 110 5 113 8 3 3 6 45 7 94 l2 89 -67 1 c-73 2 -105
16 -134 61 -16 24 -18 59 -20 335 l-1 308 36 1 c20 1 67 1 105 1 l67 -1 1 40
c4 162 12 148 -88 147 -49 0 -96 0 -105 1 -16 1 -18 13 -17 99 1 53 0 113 0
132 l-1 35 -110 0 c-61 0 -115 -2 -120 -5z"/>
<path d="M3054 3412 c-53 -19 -120 -66 -153 -108 -10 -13 -21 -24 -23 -24 -2
0 -3 24 -3 53 1 28 0 57 -2 63 -3 8 -40 11 -116 10 l-112 -1 0 -535 0 -535
120 -3 121 -3 -1 293 c0 333 6 412 39 483 40 85 92 124 174 130 86 5 148 -32
184 -113 20 -45 21 -65 23 -412 2 -201 3 -369 4 -373 1 -4 54 -6 119 -5 l117
3 1 321 c1 196 6 342 13 374 30 141 119 217 239 204 59 -6 108 -38 134 -88 35
-68 37 -88 37 -488 l1 -328 120 0 121 0 -1 381 c-2 346 -3 387 -21 452 -48
174 -148 256 -323 265 -146 7 -247 -36 -330 -139 l-39 -48 -27 42 c-60 95
-143 138 -275 144 -69 3 -102 -1 -141 -15z"/>
</g>
</svg>
